<?xml version="1.0" encoding="utf-8"?>
<!-- Generator: Adobe Illustrator 15.1.0, SVG Export Plug-In  -->
<!DOCTYPE svg PUBLIC "-//W3C//DTD SVG 1.1//EN" "http://www.w3.org/Graphics/SVG/1.1/DTD/svg11.dtd" [
	<!ENTITY ns_flows "http://ns.adobe.com/Flows/1.0/">
]>
<svg version="1.1"
	 xmlns="http://www.w3.org/2000/svg" xmlns:xlink="http://www.w3.org/1999/xlink" xmlns:a="http://ns.adobe.com/AdobeSVGViewerExtensions/3.0/"
	 x="0px" y="0px" width="512px" height="512px" viewBox="-1.209 0 512 512" enable-background="new -1.209 0 512 512"
	 xml:space="preserve">
<defs>
</defs>
<path fill="#A2A2A2" d="M173.537,231.224c-10.424,0-19.715,6.605-23.228,16.518H48.105c-4.541-12.904-18.684-19.615-31.588-15.074
	c-12.904,4.544-19.615,18.687-15.074,31.591c4.545,12.904,18.688,19.615,31.592,15.07c7.021-2.477,12.594-8.049,15.07-15.07h102.103
	c4.541,12.904,18.683,19.615,31.587,14.97c12.905-4.545,19.615-18.688,14.969-31.592
	C193.362,237.83,183.966,231.224,173.537,231.224z"/>
<path fill="#A2A2A2" d="M173.537,313.813c-10.424,0-19.715,6.605-23.228,16.518H49.654c-2.581,0-5.057,1.238-6.605,3.303
	l-10.84,14.453c-2.375-0.827-4.851-1.238-7.331-1.238C11.15,346.848,0,357.999,0,371.625c0,13.73,11.15,24.877,24.776,24.877
	c13.731,0,24.877-11.146,24.877-24.776c0-4.952-1.443-9.703-4.129-13.832l8.259-11.046h96.526
	c4.545,12.905,18.688,19.615,31.592,14.97c12.905-4.545,19.615-18.688,14.969-31.592
	C193.362,320.418,183.966,313.813,173.537,313.813z"/>
<path fill="#A2A2A2" d="M173.537,396.402c-13.727,0-24.776,11.045-24.776,24.776c0,3.714,0.827,7.327,2.48,10.634l-47.178,47.179
	H48.105c-4.541-12.904-18.684-19.615-31.588-15.074c-12.904,4.545-19.615,18.688-15.074,31.592
	c4.545,12.904,18.688,19.615,31.592,15.07c7.021-2.477,12.594-8.05,15.07-15.07h59.361c2.169,0,4.339-0.827,5.888-2.375
	l49.654-49.658c3.303,1.653,6.916,2.479,10.634,2.479c13.731,0,24.776-11.045,24.776-24.776S187.269,396.402,173.537,396.402z"/>
<path fill="#A2A2A2" d="M173.537,148.635c-10.424,0-19.715,6.605-23.228,16.518H53.783l-8.259-11.045
	c7.537-11.356,4.44-26.74-6.916-34.378c-11.356-7.537-26.736-4.44-34.378,6.916c-7.533,11.356-4.436,26.737,6.92,34.378
	c4.025,2.682,8.876,4.129,13.728,4.129c2.48,0,4.956-0.415,7.331-1.238l10.84,14.453c1.549,2.064,4.025,3.303,6.605,3.303h100.655
	c4.545,12.904,18.688,19.615,31.592,14.969c12.905-4.545,19.615-18.688,14.969-31.592
	C193.362,155.241,183.966,148.635,173.537,148.635z"/>
<path fill="#A2A2A2" d="M33.035,48.081c7.021-2.476,12.594-8.049,15.07-15.07h55.957l47.178,47.178
	c-1.653,3.303-2.48,6.916-2.48,10.634c0,13.731,11.049,24.776,24.776,24.776c13.731,0,24.777-11.045,24.777-24.776
	c0-13.731-11.045-24.777-24.777-24.777c-3.714,0-7.327,0.827-10.63,2.476l-49.658-49.654c-1.549-1.548-3.613-2.375-5.884-2.375
	h-59.26C43.564,3.588,29.422-3.122,16.518,1.419C3.613,5.964-3.097,20.106,1.443,33.011C5.988,45.916,20.131,52.625,33.035,48.081z"
	/>
<path fill="#A2A2A2" d="M256.126,455.762V353.66c9.912-3.509,16.518-12.8,16.518-23.229c0.104-13.727-10.941-24.776-24.672-24.877
	c-13.731-0.105-24.777,10.94-24.882,24.672c0,10.529,6.61,19.925,16.518,23.434v102.103c-12.905,4.541-19.615,18.684-15.07,31.588
	c4.541,12.904,18.684,19.615,31.588,15.074c12.904-4.541,19.614-18.688,15.074-31.592
	C268.724,463.816,263.147,458.239,256.126,455.762z"/>
<path fill="#A2A2A2" d="M239.608,56.239v102.099c-9.908,3.512-16.518,12.804-16.518,23.228
	c-0.101,13.731,10.945,24.777,24.676,24.881c13.731,0.101,24.776-10.944,24.878-24.676c0-10.529-6.605-19.921-16.518-23.434V56.239
	c12.904-4.544,19.614-18.687,15.074-31.592c-4.541-12.904-18.688-19.615-31.592-15.07c-12.905,4.541-19.615,18.683-15.07,31.588
	C227.014,48.186,232.591,53.759,239.608,56.239z"/>
<path fill="#A2A2A2" d="M330.355,279.33c7.021-2.477,12.594-8.049,15.07-15.07h102.103c4.541,12.904,18.684,19.615,31.588,14.97
	c12.904-4.545,19.615-18.688,14.97-31.592c-3.509-9.909-12.905-16.413-23.329-16.413c-10.429,0-19.72,6.605-23.229,16.518H345.425
	c-4.541-12.904-18.684-19.615-31.588-15.074c-12.904,4.544-19.615,18.687-15.074,31.591
	C303.308,277.164,317.451,283.875,330.355,279.33z"/>
<path fill="#A2A2A2" d="M322.197,115.6c13.731,0,24.777-11.045,24.777-24.776c0-3.718-0.823-7.332-2.477-10.634l47.178-47.178
	h55.953c4.545,12.905,18.688,19.615,31.593,15.07c12.904-4.541,19.614-18.684,15.073-31.588
	C489.75,3.588,475.608-3.122,462.703,1.419c-7.021,2.48-12.594,8.053-15.074,15.074h-59.36c-2.165,0-4.335,0.827-5.884,2.375
	L332.73,68.522c-3.307-1.649-6.92-2.476-10.634-2.476c-13.731,0-24.776,11.045-24.776,24.777
	C297.32,104.554,308.47,115.6,322.197,115.6z"/>
<path fill="#A2A2A2" d="M330.355,196.741c7.021-2.476,12.594-8.049,15.07-15.07h100.655c2.581,0,5.061-1.238,6.609-3.303
	l10.84-14.453c2.375,0.823,4.852,1.238,7.327,1.238c13.731,0,24.776-11.045,24.776-24.776c0-13.731-11.045-24.777-24.776-24.777
	c-13.728,0-24.776,11.15-24.776,24.777c0,4.851,1.447,9.602,4.129,13.731l-8.259,11.045h-96.525
	c-4.541-12.904-18.684-19.615-31.588-15.074c-12.904,4.544-19.615,18.687-15.074,31.592
	C303.308,194.575,317.451,201.286,330.355,196.741z"/>
<path fill="#A2A2A2" d="M470.857,462.473c-10.425,0-19.716,6.605-23.229,16.518h-55.953l-47.178-47.179
	c1.653-3.307,2.477-6.92,2.477-10.634c0-13.731-11.046-24.776-24.777-24.776c-13.727,0-24.776,11.045-24.776,24.776
	s11.05,24.776,24.776,24.776c3.719,0,7.332-0.826,10.635-2.479l49.658,49.658c1.549,1.548,3.613,2.375,5.883,2.375h59.361
	c4.541,12.904,18.688,19.615,31.592,14.97c12.904-4.545,19.615-18.688,14.969-31.593
	C490.681,469.079,481.286,462.473,470.857,462.473z"/>
<path fill="#A2A2A2" d="M484.588,350.978c-4.024-2.686-8.876-4.13-13.731-4.13c-2.476,0-4.952,0.411-7.327,1.238l-10.84-14.453
	c-1.549-2.064-4.028-3.303-6.609-3.303H345.425c-4.541-12.904-18.684-19.615-31.588-15.074
	c-12.904,4.545-19.615,18.688-15.074,31.592c4.545,12.905,18.688,19.615,31.592,15.07c7.021-2.476,12.594-8.049,15.07-15.07h96.525
	l8.259,11.046c-7.532,11.355-4.436,26.736,6.92,34.378c11.356,7.537,26.737,4.44,34.375-6.916
	C499.146,374,496.049,358.616,484.588,350.978z"/>
<path fill="#A2A2A2" d="M280.903,256c0,18.244-14.788,33.036-33.036,33.036c-18.244,0-33.036-14.792-33.036-33.036
	c0-18.248,14.792-33.035,33.036-33.035C266.115,222.965,280.903,237.753,280.903,256z"/>
</svg>
