<?xml version="1.0" encoding="utf-8"?>
<!-- Generator: Adobe Illustrator 15.1.0, SVG Export Plug-In  -->
<!DOCTYPE svg PUBLIC "-//W3C//DTD SVG 1.1//EN" "http://www.w3.org/Graphics/SVG/1.1/DTD/svg11.dtd" [
	<!ENTITY ns_flows "http://ns.adobe.com/Flows/1.0/">
]>
<svg version="1.1"
	 xmlns="http://www.w3.org/2000/svg" xmlns:xlink="http://www.w3.org/1999/xlink" xmlns:a="http://ns.adobe.com/AdobeSVGViewerExtensions/3.0/"
	 x="0px" y="0px" width="512px" height="512px" viewBox="-61.287 0 512 512" enable-background="new -61.287 0 512 512"
	 xml:space="preserve">
<defs>
</defs>
<path fill="#A2A2A2" d="M194.713,250.402c56.926,0,103.077-56.054,103.077-125.2C297.791,56.054,282.638,0,194.713,0
	S91.633,56.054,91.633,125.202C91.633,194.348,137.785,250.402,194.713,250.402z"/>
<path fill="#A2A2A2" d="M0.02,441.567C0.003,437.352-0.015,440.38,0.02,441.567L0.02,441.567z"/>
<path fill="#A2A2A2" d="M389.398,444.86C389.454,443.706,389.417,436.854,389.398,444.86L389.398,444.86z"/>
<path fill="#A2A2A2" d="M389.178,436.512c-1.909-120.454-17.641-154.777-138.023-176.504c0,0-16.945,21.594-56.443,21.594
	c-39.497,0-56.446-21.594-56.446-21.594C19.197,281.498,2.509,315.312,0.314,432.599c-0.18,9.578-0.264,10.081-0.295,8.969
	c0.007,2.084,0.016,5.937,0.016,12.655c0,0,28.661,57.777,194.677,57.777c166.014,0,194.677-57.777,194.677-57.777
	c0-4.316,0.003-7.318,0.007-9.36C389.364,445.55,389.299,444.217,389.178,436.512z"/>
</svg>
