<?xml version="1.0" encoding="utf-8"?>
<!-- Generator: Adobe Illustrator 15.1.0, SVG Export Plug-In  -->
<!DOCTYPE svg PUBLIC "-//W3C//DTD SVG 1.1//EN" "http://www.w3.org/Graphics/SVG/1.1/DTD/svg11.dtd" [
	<!ENTITY ns_flows "http://ns.adobe.com/Flows/1.0/">
]>
<svg version="1.1"
	 xmlns="http://www.w3.org/2000/svg" xmlns:xlink="http://www.w3.org/1999/xlink" xmlns:a="http://ns.adobe.com/AdobeSVGViewerExtensions/3.0/"
	 x="0px" y="0px" width="512px" height="512px" viewBox="-26.551 0 512 512" enable-background="new -26.551 0 512 512"
	 xml:space="preserve">
<defs>
</defs>
<path fill="#A2A2A2" d="M450.402,418.514c-54.41-24.571-56.48-130.042-56.521-132.703v-70.758
	c0-68.101-41.614-126.661-100.749-151.595C293.005,28.444,264.489,0,229.45,0c-35.04,0-63.555,28.446-63.683,63.456
	C106.634,88.39,65.019,146.949,65.019,215.05v70.758c-0.039,2.661-2.11,108.132-56.521,132.703
	c-6.199,2.801-9.605,9.548-8.172,16.197c1.432,6.65,7.312,11.399,14.115,11.399h137.939c2.828,15.556,10.183,30.027,21.433,41.749
	c14.942,15.567,34.702,24.141,55.636,24.141c20.936,0,40.696-8.573,55.636-24.141c11.251-11.723,18.606-26.195,21.433-41.749
	h137.939c6.802,0,12.682-4.749,14.115-11.399C460.005,428.06,456.6,421.313,450.402,418.514z M378.727,367.987
	c5.721,17.341,13.819,34.756,25.305,49.247H54.867c11.483-14.489,19.583-31.903,25.302-49.247H378.727z M229.45,28.875
	c15.849,0,29.25,10.65,33.443,25.167c-10.802-2.24-21.987-3.422-33.443-3.422s-22.641,1.181-33.443,3.422
	C200.201,39.526,213.602,28.875,229.45,28.875z M93.895,285.897v-70.848c0-74.744,60.809-135.554,135.556-135.554
	s135.555,60.809,135.555,135.554v70.966c0.02,2.172,0.357,24.996,6.11,53.095H87.781C93.537,310.985,93.877,288.12,93.895,285.897z
	 M229.45,483.125c-22.037,0-41.27-15.889-47.443-37.016h94.884C270.718,467.236,251.489,483.125,229.45,483.125z"/>
<path fill="#A2A2A2" d="M229.45,99.752c-62.118,0-112.655,50.535-112.655,112.652c0,7.974,6.465,14.438,14.438,14.438
	s14.438-6.464,14.438-14.438c0-46.195,37.583-83.777,83.779-83.777c7.974,0,14.438-6.464,14.438-14.438
	C243.888,106.215,237.423,99.752,229.45,99.752z"/>
</svg>
